<?xml version="1.0" standalone="no"?>
<!DOCTYPE svg PUBLIC "-//W3C//DTD SVG 20010904//EN"
 "http://www.w3.org/TR/2001/REC-SVG-20010904/DTD/svg10.dtd">
<svg version="1.0" xmlns="http://www.w3.org/2000/svg"
 width="564.000000pt" height="564.000000pt" viewBox="0 0 564.000000 564.000000"
 preserveAspectRatio="xMidYMid meet">

<g transform="translate(0.000000,564.000000) scale(0.100000,-0.100000)"
fill="#000000" stroke="none">
<path d="M2805 4660 c-22 -5 -58 -16 -80 -25 -21 -10 -61 -17 -87 -18 -46 0
-47 -1 -32 -19 10 -10 23 -18 31 -18 8 0 12 -4 8 -10 -4 -6 -15 -6 -31 0 -14
6 -27 10 -30 10 -11 0 -2 -30 17 -54 20 -26 14 -37 -9 -14 -16 16 -15 -1 2
-31 8 -14 12 -30 9 -37 -2 -6 9 -22 25 -36 16 -13 32 -31 35 -39 3 -9 6 -10 6
-1 1 7 17 12 44 12 23 0 70 7 102 16 105 29 105 29 105 5 0 -12 16 -37 35 -57
35 -35 35 -35 35 -125 0 -63 -5 -101 -16 -125 -9 -19 -18 -34 -21 -34 -2 0
-31 18 -63 40 -33 21 -60 35 -60 30 0 -11 -68 -25 -77 -16 -3 3 -5 30 -4 59 2
58 -15 85 -45 73 -14 -5 -13 -10 9 -29 23 -19 25 -27 20 -70 -5 -43 -7 -46
-20 -30 -10 13 -10 10 2 -14 14 -31 14 -34 -6 -54 -21 -21 -21 -40 -3 -114 5
-20 5 -20 -10 -1 -9 11 -16 26 -16 33 0 22 -26 14 -53 -17 -15 -16 -27 -32
-27 -34 0 -2 15 -7 34 -10 19 -4 45 -15 58 -26 23 -18 22 -18 -32 0 -30 11
-66 19 -80 19 -23 0 -24 -1 -7 -13 31 -24 18 -28 -19 -6 l-37 21 -28 -33 c-40
-50 -97 -86 -155 -98 -56 -12 -85 -34 -110 -81 l-16 -31 41 33 c23 18 43 30
46 27 3 -2 -9 -27 -26 -54 l-31 -49 33 30 33 30 -22 -35 c-11 -19 -38 -44 -58
-54 l-37 -20 29 -23 c16 -12 38 -23 49 -24 11 -1 30 -3 42 -4 12 -1 20 2 17 7
-6 9 97 111 104 103 2 -2 -5 -16 -15 -32 -30 -43 -39 -61 -23 -46 7 6 18 9 24
7 6 -2 40 7 76 21 35 14 80 25 101 25 20 0 42 7 49 14 6 8 33 22 58 31 26 10
64 24 85 33 l38 15 -41 39 c-54 52 -51 66 6 23 69 -53 76 -48 31 20 l-21 30
28 -25 c16 -14 51 -58 80 -99 l51 -73 7 57 c10 76 18 82 18 12 0 -68 10 -97
55 -151 l35 -43 112 -7 c180 -12 227 -26 68 -21 -142 5 -203 -1 -360 -37 -82
-18 -103 -19 -151 -9 -55 11 -159 0 -159 -17 0 -4 15 -14 32 -23 17 -8 33 -20
35 -26 2 -6 -17 0 -42 13 -50 25 -87 21 -112 -13 -12 -15 -14 -15 -32 1 -19
17 -24 17 -118 -4 -54 -12 -153 -40 -221 -62 -105 -34 -126 -45 -148 -74 -33
-43 -85 -67 -214 -99 -156 -39 -170 -44 -170 -66 0 -10 -4 -19 -10 -19 -5 0
-10 9 -10 19 0 40 -14 37 -235 -43 -39 -14 -127 -33 -195 -43 -69 -10 -116
-19 -105 -21 70 -11 126 -24 122 -29 -3 -2 -33 1 -67 7 -70 13 -110 7 -110
-15 0 -28 24 -65 42 -65 10 0 18 -7 18 -16 0 -11 6 -14 21 -9 14 5 28 0 44
-15 16 -15 29 -19 48 -15 17 5 28 2 34 -8 6 -11 24 -12 98 -5 78 7 99 5 159
-13 44 -13 80 -31 99 -50 24 -25 32 -28 44 -17 13 11 18 9 31 -10 17 -25 40
-29 48 -7 4 9 19 15 35 15 21 0 29 5 29 18 0 26 -58 79 -105 96 -23 9 -32 15
-20 15 34 1 102 -36 126 -68 l23 -31 13 22 c7 13 12 38 13 57 0 19 7 42 15 51
18 20 9 31 -40 48 -29 10 -29 10 -5 11 14 1 36 -6 48 -15 16 -11 26 -13 36 -5
19 16 115 38 202 46 78 8 82 23 6 24 -21 1 -31 5 -27 12 8 11 64 7 213 -17 85
-14 98 -14 150 1 69 20 189 75 234 107 18 13 42 28 53 34 17 10 27 30 41 81 2
9 11 10 34 1 24 -8 30 -15 27 -29 -6 -22 -6 -22 27 -9 35 13 33 29 -5 42 -16
6 -28 12 -26 14 5 5 99 -26 111 -37 10 -9 15 -7 -109 -45 l-90 -27 115 -29
c63 -16 176 -47 250 -70 74 -22 146 -43 159 -46 l24 -5 -7 79 c-4 43 -9 97
-11 119 l-5 40 11 -35 c6 -19 23 -105 38 -190 l27 -155 152 4 c107 2 152 0
152 -8 0 -7 -23 -11 -60 -11 l-60 0 5 -27 c18 -81 55 -180 108 -283 32 -63 51
-108 43 -100 -31 31 -116 184 -152 276 l-38 95 -36 -36 c-19 -19 -44 -49 -54
-66 l-18 -31 30 16 c48 25 49 19 4 -20 -23 -19 -50 -47 -61 -62 l-19 -27 44
-2 c67 -2 83 -19 17 -18 -73 0 -86 -16 -56 -77 11 -24 23 -50 25 -58 3 -9 13
2 26 30 24 49 24 51 -3 -80 -8 -36 -16 -94 -20 -130 l-6 -65 25 53 c14 28 27
52 29 52 3 0 -4 -28 -14 -62 -23 -72 -49 -217 -48 -262 0 -26 3 -22 14 21 17
62 71 202 86 223 10 13 10 13 6 0 -2 -8 -18 -58 -35 -110 -17 -53 -38 -133
-47 -178 l-17 -82 27 -45 c31 -54 56 -72 127 -91 94 -25 98 -23 99 44 l1 57
12 -65 c7 -39 17 -64 24 -63 6 2 36 6 65 9 47 6 57 4 76 -15 27 -27 37 -27
280 9 176 26 208 34 232 55 48 40 144 44 287 13 48 -10 52 -13 52 -39 0 -23 8
-32 39 -49 61 -31 155 -113 216 -190 52 -65 89 -94 66 -52 -12 23 -30 123 -21
117 4 -2 12 -29 19 -59 16 -72 34 -87 55 -45 14 27 14 33 1 46 -17 17 -20 49
-5 58 20 12 9 25 -15 19 -27 -7 -35 10 -10 20 15 5 12 17 -93 302 -20 53 -27
85 -21 95 13 20 11 29 -6 29 -8 0 -15 8 -15 18 0 10 -13 31 -30 47 l-30 29 0
-40 c1 -21 7 -57 15 -79 20 -54 18 -57 -6 -11 -12 21 -23 63 -26 93 l-6 55
-45 -6 c-24 -3 -66 -18 -93 -33 l-50 -27 25 -20 c14 -12 32 -38 41 -58 17 -42
20 -103 5 -93 -5 3 -10 21 -10 40 0 28 -8 40 -45 71 l-45 36 -106 -1 c-59 -1
-158 3 -220 10 -112 12 -133 11 -319 -17 -26 -4 -25 -2 10 12 22 8 60 20 85
24 36 8 28 8 -40 5 -99 -5 -218 -36 -275 -71 l-40 -25 35 31 c19 16 37 30 40
30 3 0 21 28 40 63 l34 64 -79 99 c-106 135 -102 129 -88 121 7 -4 47 -49 89
-100 43 -51 81 -96 86 -101 4 -6 8 4 8 21 0 22 -14 48 -47 90 -73 91 -71 94 5
13 39 -41 72 -73 72 -70 1 3 5 69 9 147 9 171 23 201 72 151 l22 -23 -7 35
c-15 79 -62 142 -161 218 l-30 23 41 -20 c23 -11 73 -54 112 -96 56 -60 73
-73 78 -60 4 10 -4 27 -22 48 l-29 31 28 -18 c26 -16 30 -16 52 -2 22 15 61
74 53 81 -2 1 -26 -2 -54 -8 -46 -9 -56 -8 -109 17 -62 28 -70 42 -14 26 80
-23 171 -3 200 44 11 17 19 43 19 59 0 27 -13 36 -25 17 -9 -14 -85 -52 -85
-43 0 5 16 20 35 36 19 15 40 38 46 50 8 15 -1 10 -28 -15 -21 -21 -42 -38
-45 -38 -4 0 2 21 13 46 11 25 23 69 26 97 4 45 0 63 -32 130 -38 83 -42 117
-5 50 15 -28 20 -31 16 -13 -3 14 -6 30 -6 36 0 6 -11 28 -25 48 -14 21 -21
35 -15 31 16 -10 12 2 -23 69 -18 34 -37 71 -40 82 -25 71 78 -122 131 -246
16 -38 14 -1 -3 55 -20 67 -10 69 19 4 14 -30 25 -47 25 -38 1 25 -55 131 -96
179 -37 45 -37 45 -4 15 19 -16 47 -50 62 -74 16 -25 29 -38 29 -29 0 18 -53
92 -89 124 -14 13 -23 24 -19 24 4 0 24 -15 45 -32 33 -29 36 -30 22 -8 -9 14
-13 31 -9 40 10 20 30 106 30 129 0 23 -18 31 -78 32 -26 1 -37 4 -24 6 27 5
29 20 2 28 -11 3 -20 11 -20 16 0 5 9 9 20 9 23 0 26 22 6 39 -11 10 -23 8
-56 -9 l-42 -22 16 23 c18 26 21 65 6 74 -5 3 -10 -3 -10 -13 0 -19 -40 -56
-89 -82 -18 -9 -13 1 23 45 49 60 63 94 51 122 -6 15 -9 13 -16 -12 -5 -16
-18 -41 -29 -55 l-21 -25 14 35 c8 19 17 53 21 75 6 38 5 37 -30 -28 -20 -37
-38 -66 -40 -64 -2 2 7 30 21 62 13 33 26 89 30 125 6 63 5 64 -10 38 -9 -16
-18 -28 -21 -28 -2 0 -2 12 2 28 6 26 6 27 -10 7 -17 -19 -17 -19 -11 10 4 16
7 30 8 31 1 0 29 10 62 22 78 27 166 34 237 20 46 -10 62 -9 82 1 28 16 38 14
271 -30 329 -62 383 -80 433 -150 47 -66 47 -66 100 -73 33 -4 68 -18 101 -41
27 -19 53 -30 56 -25 7 11 -9 45 -34 74 -15 18 -15 18 7 7 18 -10 23 -9 28 4
4 8 1 22 -6 30 -10 12 -9 15 4 15 26 0 19 30 -15 61 -18 16 -29 33 -25 36 3 4
12 -2 20 -12 8 -11 20 -16 30 -12 34 13 15 37 -60 72 -71 32 -132 46 -120 27
3 -5 -54 15 -127 44 -73 29 -204 74 -292 99 -88 25 -138 43 -111 39 27 -3 56
-8 65 -11 13 -4 12 -2 -2 7 -22 15 -142 40 -189 40 -37 0 -38 -1 -39 -37 -1
-34 -2 -32 -9 14 -15 102 -16 103 -63 103 -23 0 -73 3 -111 7 l-70 6 23 -24
c44 -47 43 -63 -2 -22 -51 47 -65 52 -267 89 -123 22 -152 25 -193 15 -27 -6
-72 -11 -100 -11 -29 0 -68 -4 -86 -10 -25 -7 -32 -7 -24 1 6 6 26 15 45 19
l33 8 -41 1 c-28 1 -52 -7 -77 -23 -19 -13 -43 -26 -54 -28 -15 -3 -18 -12
-16 -63 l3 -60 -16 45 c-18 53 -29 96 -49 204 -18 96 -45 135 -117 169 -61 29
-126 39 -183 27z m294 -274 c10 -12 8 -13 -8 -9 -17 4 -24 -2 -37 -32 -11 -27
-12 -40 -4 -50 8 -9 8 -15 0 -20 -14 -8 -13 -35 2 -35 6 0 8 3 5 6 -3 4 5 15
18 26 28 22 32 46 10 54 -18 7 -10 24 11 24 16 0 20 -55 4 -65 -5 -3 -10 -17
-10 -30 0 -23 -24 -40 -41 -30 -5 4 -7 -9 -4 -27 2 -18 -2 -6 -11 27 -18 71
-12 113 21 149 28 30 29 31 44 12z m22 -264 c-24 -47 -88 -105 -107 -98 -8 3
-20 -3 -26 -14 -7 -11 -17 -20 -21 -20 -9 0 17 38 59 85 l26 30 -17 -28 c-9
-16 -14 -31 -12 -34 12 -11 69 45 90 87 12 26 23 43 25 39 2 -4 -6 -25 -17
-47z m-237 -64 c21 -30 20 -44 -4 -68 -21 -21 -70 -28 -70 -9 0 6 10 9 23 8
25 -4 47 7 47 24 0 6 -7 2 -16 -9 -15 -19 -16 -19 -9 1 16 44 12 50 -35 51
-67 2 -72 3 -66 12 3 5 30 10 60 11 46 2 56 -1 70 -21z m-344 -238 c0 -5 -4
-10 -9 -10 -6 0 -13 5 -16 10 -3 6 1 10 9 10 9 0 16 -4 16 -10z m51 -8 c-7 -2
-18 1 -23 6 -8 8 -4 9 13 5 13 -4 18 -8 10 -11z m-106 -2 c-3 -5 -14 -10 -23
-10 -15 0 -15 2 -2 10 20 13 33 13 25 0z m-52 -29 c-3 -10 2 -32 10 -47 8 -16
18 -47 22 -69 4 -22 10 -45 13 -50 4 -6 -3 0 -14 13 -12 13 -27 42 -33 63 -12
41 -22 47 -40 26 -8 -10 -7 -17 1 -25 7 -7 8 -12 2 -12 -15 0 -34 22 -34 39 0
15 58 81 71 81 4 0 5 -8 2 -19z m206 -17 c26 -33 27 -54 2 -54 -23 0 -26 4
-36 48 -8 39 6 42 34 6z m-122 -6 c12 -13 24 -32 27 -43 3 -11 3 -3 0 18 -3
20 -1 37 3 37 21 0 53 -33 53 -55 0 -22 3 -24 30 -18 17 3 30 1 30 -4 0 -14
-22 -33 -39 -33 -8 0 -22 -7 -32 -16 -19 -17 -39 -11 -39 12 0 8 9 14 20 14
20 0 26 11 14 23 -12 12 -42 -12 -48 -38 -7 -28 -29 -29 -34 -2 -2 10 3 17 12
17 22 0 20 27 -3 35 -10 3 -22 16 -25 28 -14 52 -2 61 31 25z m163 -98 c0 -5
-5 -10 -11 -10 -5 0 -7 5 -4 10 3 6 8 10 11 10 2 0 4 -4 4 -10z m1260 -215 c0
-18 3 -41 7 -51 6 -16 2 -15 -24 4 -17 12 -41 27 -54 32 -18 8 -19 9 -4 6 11
-2 28 -7 38 -11 22 -9 23 13 0 45 -16 22 -16 23 0 17 15 -6 16 -3 7 16 -11 21
-10 21 9 -2 12 -13 21 -37 21 -56z"/>
<path d="M2822 4260 c-18 -11 -37 -18 -43 -15 -17 11 -9 -15 11 -35 19 -19 57
-29 46 -12 -3 5 11 14 30 21 37 13 44 27 17 34 -17 4 -17 5 0 6 23 1 12 21
-11 21 -9 0 -32 -9 -50 -20z"/>
<path d="M940 3470 c38 -20 117 -96 108 -105 -3 -3 -30 6 -60 20 -99 45 -201
43 -271 -7 l-29 -21 11 21 c6 11 27 30 46 42 51 31 43 34 -15 5 -27 -14 -68
-44 -90 -67 -25 -26 -38 -35 -34 -23 12 34 36 68 73 108 42 45 35 47 -23 8
-88 -61 -137 -184 -116 -289 21 -100 63 -158 144 -199 145 -74 320 -20 394
121 22 43 27 64 27 131 0 67 -5 88 -27 130 -14 28 -39 62 -55 76 -32 31 -93
69 -108 69 -5 -1 6 -9 25 -20z m-236 -463 c31 -16 58 -21 111 -21 96 0 154 32
219 119 12 16 15 17 16 4 0 -24 -68 -97 -114 -122 -62 -33 -174 -31 -242 5
-48 26 -92 71 -108 112 -4 11 12 -2 35 -28 23 -26 60 -57 83 -69z"/>
<path d="M1738 2033 c-807 -2 -1228 -6 -1228 -13 0 -7 420 -10 1230 -10 1087
0 1230 2 1230 15 0 8 -1 14 -2 13 -2 -2 -555 -4 -1230 -5z"/>
<path d="M525 1930 c-4 -16 -4 -39 0 -50 9 -29 -45 -259 -66 -279 -9 -9 -20
-31 -24 -48 l-7 -33 65 0 65 0 7 37 c4 22 3 39 -3 41 -6 2 -5 20 2 50 l12 47
56 3 c53 3 56 4 62 34 9 48 9 48 -45 48 l-51 0 7 43 c10 56 11 57 51 57 28 0
34 -4 34 -21 0 -17 5 -20 37 -17 36 3 37 5 49 58 7 30 13 56 14 58 0 1 -58 2
-129 2 l-129 0 -7 -30z"/>
<path d="M854 1938 c-16 -12 -30 -22 -32 -23 -1 -1 -20 -82 -43 -179 -50 -219
-51 -216 77 -216 78 0 86 2 113 28 25 23 34 48 69 195 39 167 39 168 20 192
-18 23 -27 25 -97 25 -65 0 -83 -4 -107 -22z m128 -63 c2 -3 -4 -40 -14 -83
-10 -42 -25 -102 -32 -132 l-13 -55 -46 -3 c-26 -2 -47 -1 -47 2 0 2 14 63 30
134 17 72 30 133 30 136 0 7 85 8 92 1z"/>
<path d="M1153 1939 c-36 -23 -34 -19 -82 -225 -36 -154 -36 -156 -13 -177 14
-13 38 -17 99 -17 120 0 128 9 177 222 37 159 38 168 22 192 -15 24 -22 26
-94 26 -61 0 -84 -5 -109 -21z m127 -73 c0 -13 -43 -203 -56 -248 -4 -14 -16
-18 -50 -18 -28 0 -44 4 -44 12 0 7 14 70 31 140 l31 128 44 0 c31 0 44 -4 44
-14z"/>
<path d="M1425 1948 c-7 -24 -25 -93 -25 -100 0 -5 18 -8 39 -8 31 0 41 4 46
20 7 21 25 28 25 10 0 -38 -66 -266 -82 -282 -10 -10 -18 -29 -18 -43 0 -24 3
-25 60 -25 l59 0 10 37 c8 26 7 39 -1 44 -7 5 0 48 23 143 30 124 49 168 49
116 0 -17 7 -20 39 -20 37 0 39 1 50 44 20 80 28 76 -129 76 -104 0 -142 -3
-145 -12z"/>
<path d="M1751 1923 c-8 -26 -7 -39 1 -44 14 -9 -51 -279 -68 -279 -10 0 -24
-42 -24 -71 0 -5 49 -9 110 -9 106 0 111 1 139 28 35 33 64 134 48 170 -8 18
-6 27 11 45 11 12 27 51 36 87 14 63 14 66 -6 88 -20 20 -30 22 -129 22 l-108
0 -10 -37z m176 -57 c-3 -8 -9 -31 -13 -50 -6 -35 -8 -36 -51 -36 -35 0 -44 3
-40 14 3 8 9 31 13 50 6 35 8 36 51 36 35 0 44 -3 40 -14z m-51 -208 c-9 -56
-11 -58 -57 -58 -40 0 -41 0 -34 33 13 66 14 67 57 67 l41 0 -7 -42z"/>
<path d="M2137 1898 c-69 -167 -128 -291 -141 -302 -9 -6 -19 -26 -22 -44 l-7
-33 64 3 c63 3 63 3 72 38 6 22 5 36 -2 38 -5 2 -7 10 -4 18 7 20 83 19 83 -1
0 -8 -4 -15 -9 -15 -9 0 -12 -8 -27 -62 -5 -16 3 -18 60 -18 l65 0 7 34 c3 19
3 40 -1 47 -9 13 -8 141 1 272 l7 87 -60 0 -59 0 -27 -62z m44 -181 c-5 -5
-16 -7 -25 -4 -13 5 -12 13 7 58 l22 52 3 -48 c2 -26 -1 -52 -7 -58z"/>
<path d="M2405 1924 c-4 -22 -2 -39 4 -43 14 -9 -51 -265 -73 -286 -9 -9 -16
-22 -16 -30 0 -7 -3 -20 -6 -29 -5 -14 9 -16 119 -16 l126 0 10 38 c19 65 16
72 -29 72 -29 0 -40 -4 -40 -15 0 -10 -10 -15 -34 -15 l-33 0 33 136 c18 75
39 141 47 147 8 7 18 27 22 45 l7 32 -65 0 -65 0 -7 -36z"/>
<path d="M2695 1924 c-3 -20 -2 -41 3 -46 14 -14 -46 -260 -68 -278 -9 -8 -20
-30 -23 -47 l-6 -33 123 0 124 0 11 44 c16 64 15 66 -29 66 -29 0 -40 -4 -40
-15 0 -10 -10 -15 -34 -15 l-33 0 32 136 c18 75 39 140 48 147 8 7 18 27 22
45 l7 32 -65 0 -65 0 -7 -36z"/>
<path d="M390 1450 c0 -7 417 -10 1230 -10 813 0 1230 3 1230 10 0 7 -417 10
-1230 10 -813 0 -1230 -3 -1230 -10z"/>
<path d="M2250 869 c-217 -4 -557 -13 -755 -18 -198 -6 -402 -11 -454 -11 -52
0 -92 -3 -88 -6 5 -5 422 -23 827 -35 109 -4 -168 -16 -540 -24 -190 -4 -352
-9 -360 -11 -8 -1 -53 -4 -100 -5 -135 -4 496 -16 940 -18 223 -1 411 -5 418
-10 7 -4 -94 -11 -230 -15 -134 -4 -396 -13 -583 -21 -187 -8 -365 -16 -395
-17 -114 -4 543 -15 977 -17 417 -1 957 10 1283 27 l135 8 -150 7 c-82 4 -213
10 -290 14 l-140 7 105 8 c58 4 447 23 865 43 418 19 774 37 790 39 17 1 -134
4 -335 6 -201 1 -520 6 -710 9 l-345 6 200 18 c110 10 209 20 220 21 41 6
-903 3 -1285 -5z"/>
</g>
</svg>
