<?xml version="1.0" standalone="no"?>
<!DOCTYPE svg PUBLIC "-//W3C//DTD SVG 20010904//EN"
 "http://www.w3.org/TR/2001/REC-SVG-20010904/DTD/svg10.dtd">
<svg version="1.0" xmlns="http://www.w3.org/2000/svg"
 width="564.000000pt" height="564.000000pt" viewBox="0 0 564.000000 564.000000"
 preserveAspectRatio="xMidYMid meet">

<g transform="translate(0.000000,564.000000) scale(0.100000,-0.100000)"
fill="#000000" stroke="none">
<path d="M2670 4948 c-63 -4 -153 -14 -200 -23 -47 -9 -93 -17 -102 -16 -10 0
-18 -5 -18 -11 0 -5 -6 -8 -14 -5 -49 19 -473 -149 -611 -242 -22 -15 -47 -30
-55 -33 -46 -17 -242 -178 -350 -287 -145 -146 -183 -191 -263 -309 -249 -371
-368 -756 -368 -1198 0 -253 30 -449 104 -674 55 -168 179 -426 199 -414 4 3
5 -1 3 -8 -7 -17 94 -164 185 -273 284 -337 640 -569 1060 -690 66 -19 87 -21
99 -12 12 9 13 9 8 0 -18 -30 226 -63 465 -64 410 0 754 95 1122 309 166 98
409 312 550 486 240 296 396 660 451 1046 19 134 21 427 5 540 -6 41 -14 93
-16 115 -9 70 -64 277 -101 374 -84 226 -204 435 -344 604 -90 108 -210 227
-222 220 -5 -3 -7 -2 -4 4 11 18 -202 186 -337 265 -385 226 -795 324 -1246
296z m358 -99 c710 -77 1311 -497 1622 -1132 338 -691 262 -1510 -196 -2117
-329 -437 -805 -720 -1349 -801 -131 -20 -493 -17 -610 5 -362 69 -644 191
-917 397 -106 80 -297 271 -377 377 -203 268 -331 563 -393 899 -29 158 -31
506 -5 658 68 386 215 710 455 995 246 294 583 521 936 631 72 23 138 43 146
46 8 3 24 8 35 10 11 2 22 8 24 14 2 8 5 8 10 1 5 -8 33 -7 96 3 50 8 108 16
130 18 89 8 302 6 393 -4z m-1148 -169 c0 -5 -4 -10 -10 -10 -5 0 -10 5 -10
10 0 6 5 10 10 10 6 0 10 -4 10 -10z m-973 -1106 c-3 -3 -12 -4 -19 -1 -8 3
-5 6 6 6 11 1 17 -2 13 -5z"/>
<path d="M2715 4793 c-16 -3 -27 -23 -47 -92 -51 -164 -40 -160 -108 -44 -33
56 -63 104 -68 107 -5 3 -30 2 -56 -2 l-47 -7 95 -151 95 -150 13 -104 13
-105 45 4 c25 1 47 4 49 7 2 2 -1 47 -6 101 l-10 98 53 155 c29 85 56 163 59
173 6 14 2 17 -26 16 -19 -1 -43 -4 -54 -6z"/>
<path d="M3070 4739 c-14 -50 -12 -52 71 -69 33 -7 59 -15 59 -19 0 -3 -5 -22
-10 -41 -5 -20 -11 -49 -14 -65 -2 -17 -6 -37 -9 -45 -4 -8 -18 -64 -32 -125
-14 -60 -28 -117 -31 -126 -3 -13 7 -19 42 -28 26 -7 48 -10 50 -8 6 5 94 374
94 391 0 25 16 27 82 12 45 -10 65 -11 70 -3 8 13 21 78 16 82 -4 4 -354 85
-366 85 -6 0 -16 -19 -22 -41z"/>
<path d="M2071 4647 l-24 -11 6 -279 c3 -154 8 -282 11 -284 3 -3 26 3 51 13
l47 17 -4 45 -3 45 90 38 90 38 30 -35 30 -35 49 20 c58 25 70 4 -115 201 -75
80 -156 166 -179 193 -47 52 -45 51 -79 34z m186 -301 c-3 -8 -98 -48 -103
-43 -2 1 -5 43 -9 92 l-6 90 60 -65 c33 -36 59 -69 58 -74z"/>
<path d="M3636 4585 c-9 -13 -16 -31 -16 -39 0 -8 -4 -16 -9 -18 -11 -4 -221
-354 -221 -368 0 -14 84 -54 87 -43 2 5 26 47 54 92 l50 81 58 -32 c32 -18 68
-40 81 -49 l24 -15 -54 -93 c-42 -75 -50 -95 -39 -102 27 -18 71 -40 73 -37
12 15 266 447 266 451 0 8 -65 47 -78 47 -5 0 -31 -35 -56 -77 -25 -43 -50
-84 -54 -91 -7 -10 -28 -2 -90 36 l-81 48 47 80 c67 111 67 109 26 133 -44 26
-48 26 -68 -4z m59 -545 c3 -5 1 -10 -4 -10 -6 0 -11 5 -11 10 0 6 2 10 4 10
3 0 8 -4 11 -10z"/>
<path d="M1627 4397 l-37 -32 116 -130 c126 -141 149 -180 135 -218 -23 -59
-111 -88 -148 -49 -30 31 -96 105 -132 147 -19 22 -52 59 -73 83 l-39 43 -34
-28 c-18 -15 -34 -32 -34 -36 -1 -5 55 -73 124 -151 141 -162 185 -193 259
-180 53 8 84 25 123 66 56 58 81 149 48 181 -8 8 -11 17 -8 21 5 5 -71 111
-85 118 -4 2 -40 42 -80 89 -98 118 -92 114 -135 76z"/>
<path d="M2660 4144 c-365 -47 -666 -208 -895 -479 -325 -387 -395 -950 -176
-1411 182 -382 524 -651 933 -734 435 -89 870 38 1190 348 198 192 322 415
380 685 28 131 30 376 4 509 -52 272 -171 494 -370 694 -196 196 -401 308
-671 365 -88 19 -319 32 -395 23z m-138 -203 c54 -22 137 -128 121 -154 -4 -6
1 -8 11 -4 10 4 36 10 59 14 35 5 39 4 34 -10 -5 -13 6 -23 44 -42 27 -14 52
-32 56 -40 8 -22 19 -18 20 7 2 27 15 35 71 43 63 9 85 -20 58 -74 -50 -102
-67 -147 -82 -226 -9 -49 -24 -103 -31 -119 -15 -28 -14 -30 35 -79 l50 -50
64 53 c35 29 66 58 70 65 5 7 34 30 65 51 32 21 78 55 103 75 57 48 94 62 142
54 42 -8 52 -21 68 -89 9 -40 6 -61 -20 -158 -17 -62 -35 -123 -40 -136 -6
-13 -17 -57 -26 -98 -21 -105 -70 -271 -87 -297 -7 -12 -22 -44 -32 -70 -16
-42 -21 -48 -44 -45 -33 4 -41 40 -25 124 10 55 9 66 -9 105 l-19 43 25 22
c14 12 31 24 37 26 7 2 10 40 8 113 -3 101 -4 108 -16 80 -8 -16 -16 -52 -19
-79 -5 -41 -11 -51 -39 -68 -35 -21 -61 -67 -68 -119 -2 -19 -7 -61 -11 -93
-7 -57 -11 -63 -76 -129 -60 -60 -69 -74 -69 -105 0 -66 -28 -142 -78 -215
-60 -88 -148 -266 -161 -327 -18 -78 -14 -181 9 -223 11 -20 20 -43 20 -51 0
-27 -127 -29 -149 -2 -5 6 -12 47 -16 91 -4 43 -11 89 -15 101 -5 13 -3 30 5
45 30 51 38 77 51 164 20 125 41 186 91 263 47 73 51 99 29 174 -8 26 -18 91
-22 145 -4 58 -14 112 -24 133 -12 25 -16 53 -13 100 4 69 -16 171 -39 193 -7
7 -56 43 -108 79 -52 37 -105 74 -117 82 -30 22 -86 120 -102 179 -14 50 -11
213 5 238 4 7 8 33 9 56 l1 43 -60 0 -59 0 6 -52 c4 -29 9 -63 13 -75 8 -29
-17 -30 -61 -4 -26 15 -30 24 -31 61 0 34 6 51 26 74 23 25 37 31 98 37 66 7
74 11 104 45 49 56 107 76 160 55z"/>
<path d="M2795 3575 c-16 -8 -43 -14 -60 -15 -44 -1 -57 -12 -50 -43 8 -30 72
-97 93 -97 16 0 48 70 57 128 7 46 5 47 -40 27z"/>
<path d="M4047 4008 l-267 -90 32 -40 c32 -41 36 -42 103 -23 16 5 33 -9 79
-66 l60 -72 -22 -40 -22 -39 31 -39 c17 -22 34 -39 37 -39 4 0 69 111 146 246
l138 246 -23 23 -24 23 -268 -90z m153 -54 c0 -9 -84 -144 -90 -144 -3 0 -23
20 -43 45 -26 31 -34 47 -25 50 7 3 42 16 78 29 70 27 80 29 80 20z"/>
<path d="M1144 3874 l-27 -55 69 -70 c38 -39 75 -67 82 -64 7 3 11 1 7 -4 -3
-5 21 -34 52 -64 l57 -55 -169 34 c-93 19 -176 34 -184 33 -14 0 -78 -106 -69
-114 2 -1 35 -18 73 -37 39 -19 140 -71 226 -116 86 -45 161 -82 167 -82 11 0
42 50 42 68 0 8 -31 26 -218 122 -46 23 -81 44 -79 46 2 2 66 -7 143 -21 76
-14 142 -25 146 -25 5 0 16 17 26 38 l19 37 -111 114 -111 113 158 -82 c88
-45 160 -80 161 -78 1 2 13 20 25 40 l22 38 -28 11 c-15 6 -37 16 -48 22 -11
6 -56 30 -100 54 -97 53 -293 153 -299 153 -3 0 -17 -25 -32 -56z m423 -200
c-3 -3 -12 -4 -19 -1 -8 3 -5 6 6 6 11 1 17 -2 13 -5z m-77 -118 c0 -3 -4 -8
-10 -11 -5 -3 -10 -1 -10 4 0 6 5 11 10 11 6 0 10 -2 10 -4z m-420 -16 c0 -5
-4 -10 -10 -10 -5 0 -10 5 -10 10 0 6 5 10 10 10 6 0 10 -4 10 -10z m357 -20
c-1 -12 -5 -16 -10 -11 -5 5 -6 14 -3 20 11 16 15 13 13 -9z"/>
<path d="M4448 3663 c-68 -33 -118 -62 -118 -70 0 -10 -6 -12 -20 -8 -12 4
-25 -1 -36 -14 -9 -10 -22 -17 -29 -15 -7 3 -44 -11 -82 -30 l-70 -36 21 -45
c16 -34 25 -43 39 -39 9 3 119 54 242 114 l225 109 -22 46 c-12 25 -24 45 -27
44 -4 0 -59 -25 -123 -56z"/>
<path d="M1095 2929 c-54 -27 -78 -104 -50 -163 42 -88 177 -89 219 -2 9 19
16 44 16 56 0 36 -31 90 -61 105 -32 17 -94 19 -124 4z"/>
<path d="M4419 2925 c-29 -15 -59 -70 -59 -105 0 -36 31 -90 61 -105 50 -26
105 -19 144 18 85 78 33 208 -82 207 -21 -1 -50 -7 -64 -15z"/>
<path d="M1469 1805 c-96 -87 -185 -168 -199 -181 l-25 -24 35 -35 35 -35 80
70 c63 55 82 67 90 57 6 -8 36 -42 67 -76 62 -66 71 -68 112 -22 19 20 18 21
-40 87 -33 36 -63 71 -68 78 -6 9 5 26 35 54 l44 42 87 -92 87 -93 35 34 35
34 -83 91 c-46 50 -99 108 -118 130 l-34 39 -175 -158z"/>
<path d="M3950 1895 c-14 -7 -64 -56 -112 -108 l-87 -95 112 -103 c62 -57 149
-139 194 -182 l81 -79 35 38 34 38 -76 72 -76 73 22 22 21 21 116 -28 116 -28
40 39 c22 21 40 42 40 46 0 4 -17 9 -37 12 -21 3 -75 15 -121 27 -75 21 -82
24 -76 44 39 121 -116 252 -226 191z m105 -110 c37 -36 31 -63 -25 -120 l-49
-50 -46 45 -45 44 52 53 c29 29 61 53 71 53 10 0 29 -11 42 -25z m-95 -175 c0
-5 -5 -10 -11 -10 -5 0 -7 5 -4 10 3 6 8 10 11 10 2 0 4 -4 4 -10z"/>
<path d="M1860 1538 c-47 -67 -115 -166 -152 -219 l-68 -97 41 -26 c22 -15 44
-24 48 -21 10 6 291 403 297 419 3 9 -66 67 -78 66 -1 0 -41 -55 -88 -122z"/>
<path d="M3547 1566 c-82 -47 -151 -87 -154 -89 -5 -5 232 -434 251 -454 8 -8
48 10 156 73 80 45 149 85 153 86 7 3 -17 55 -39 86 -1 2 -50 -24 -109 -57
-59 -34 -110 -61 -114 -61 -3 0 -18 23 -33 50 l-27 49 93 53 c102 58 99 52 60
115 -13 21 -13 21 -101 -28 -49 -27 -91 -49 -94 -49 -3 0 -20 22 -37 50 l-31
50 109 61 c61 34 110 65 110 70 0 7 -40 79 -43 79 -1 0 -69 -38 -150 -84z
m-47 -106 c0 -5 -5 -10 -11 -10 -5 0 -7 5 -4 10 3 6 8 10 11 10 2 0 4 -4 4
-10z"/>
<path d="M2165 1478 c-41 -14 -89 -62 -108 -106 -97 -226 -100 -288 -20 -364
65 -62 166 -76 238 -33 50 29 67 52 99 138 l24 65 -80 31 c-43 17 -83 31 -88
31 -4 0 -13 -12 -18 -27 -5 -16 -13 -35 -17 -44 -5 -13 2 -20 29 -29 41 -13
45 -31 16 -60 -30 -30 -65 -35 -102 -13 -61 35 -64 58 -23 170 39 104 69 143
112 143 37 0 84 -31 90 -61 4 -20 16 -30 51 -42 61 -22 62 -22 62 14 0 47 -45
131 -82 154 -72 44 -125 53 -183 33z m155 -354 c0 -2 -7 -4 -15 -4 -8 0 -15 4
-15 10 0 5 7 7 15 4 8 -4 15 -8 15 -10z"/>
<path d="M3220 1426 c-47 -13 -120 -31 -163 -41 l-78 -18 6 -41 c4 -22 9 -44
11 -48 2 -3 35 2 74 12 64 16 70 17 74 1 2 -9 25 -104 51 -211 27 -107 49
-196 49 -197 2 -2 90 19 94 23 2 1 -19 96 -48 210 -28 114 -48 210 -43 214 4
4 36 13 70 20 60 12 62 14 56 39 -7 30 -36 61 -55 60 -7 0 -51 -11 -98 -23z
m-6 -51 c3 -9 0 -12 -9 -9 -7 3 -16 12 -19 19 -3 9 0 12 9 9 7 -3 16 -12 19
-19z"/>
<path d="M2556 1368 c-5 -16 -28 -510 -24 -513 2 -1 24 -5 51 -7 39 -5 47 -3
47 11 1 40 13 196 16 200 1 2 44 0 95 -4 l91 -7 -3 -107 -4 -106 48 -3 c39 -3
47 0 48 15 1 10 3 52 5 93 5 125 14 291 20 356 5 58 4 62 -18 68 -42 11 -76 7
-83 -11 -3 -10 -6 -51 -5 -93 1 -41 1 -83 1 -92 -1 -16 -11 -18 -73 -18 -124
0 -119 -5 -117 119 l2 106 -47 3 c-31 2 -47 -1 -50 -10z"/>
</g>
</svg>
