<?xml version="1.0" standalone="no"?>
<!DOCTYPE svg PUBLIC "-//W3C//DTD SVG 20010904//EN"
 "http://www.w3.org/TR/2001/REC-SVG-20010904/DTD/svg10.dtd">
<svg version="1.0" xmlns="http://www.w3.org/2000/svg"
 width="564.000000pt" height="564.000000pt" viewBox="0 0 564.000000 564.000000"
 preserveAspectRatio="xMidYMid meet">

<g transform="translate(0.000000,564.000000) scale(0.100000,-0.100000)"
fill="#000000" stroke="none">
<path d="M2911 4094 c-19 -24 -21 -40 -21 -183 0 -180 10 -214 71 -244 31 -15
41 -16 74 -5 21 7 48 26 59 41 19 26 21 41 21 202 0 214 0 215 -111 215 -66 0
-74 -2 -93 -26z"/>
<path d="M2624 4063 c-49 -9 -59 -36 -62 -173 -4 -141 7 -186 52 -215 30 -20
84 -22 115 -5 49 26 61 65 61 202 0 74 -5 138 -11 152 -18 38 -80 54 -155 39z"/>
<path d="M3288 4063 c-15 -3 -37 -16 -48 -31 -20 -25 -21 -37 -18 -169 3 -141
3 -142 32 -172 25 -26 37 -31 79 -31 40 0 53 5 78 29 29 29 29 30 31 158 2
163 0 174 -20 195 -18 18 -83 28 -134 21z"/>
<path d="M2290 4003 c-46 -18 -50 -31 -50 -160 0 -124 0 -125 29 -154 25 -24
38 -29 78 -29 42 0 54 5 79 31 28 29 29 33 32 148 4 148 -4 163 -94 167 -32 2
-66 1 -74 -3z"/>
<path d="M2049 3895 c-111 -41 -199 -117 -243 -210 -23 -48 -207 -814 -236
-980 -17 -101 22 -208 103 -281 63 -57 128 -78 221 -72 120 8 197 62 278 194
18 30 35 54 39 54 3 0 21 -29 39 -65 96 -188 277 -322 487 -359 l78 -13 -49
-8 c-46 -7 -92 -5 -197 11 -46 6 -47 6 -54 -25 -6 -29 -10 -31 -50 -31 -69 0
-75 -11 -75 -156 0 -97 -3 -124 -13 -124 -22 0 -47 -34 -47 -63 0 -59 -14 -57
515 -57 l485 0 16 25 c23 35 11 74 -26 88 l-30 11 0 128 c0 142 -3 148 -74
148 -41 0 -53 16 -62 83 l-6 44 69 46 c103 68 192 174 232 275 8 17 17 32 21
32 4 0 23 -24 43 -54 49 -74 107 -129 164 -158 40 -19 64 -23 138 -23 105 0
144 16 211 87 96 99 109 174 65 368 -120 533 -194 830 -217 877 -51 105 -178
202 -289 220 l-36 6 3 -53 3 -52 45 -15 c85 -29 160 -99 190 -177 28 -74 220
-918 220 -966 0 -57 -20 -99 -68 -142 -37 -33 -93 -58 -132 -58 -37 0 -93 24
-126 53 -58 50 -188 252 -211 327 -27 89 -216 408 -250 421 -38 14 -453 11
-483 -4 -21 -11 -25 -20 -28 -68 -2 -44 2 -61 20 -88 46 -68 66 -76 208 -79
l129 -4 25 -76 c30 -90 31 -92 11 -92 -30 0 -117 -51 -159 -93 -50 -50 -87
-122 -94 -183 -9 -79 -25 -49 -20 39 5 99 35 173 99 242 l42 46 -329 -3 c-422
-4 -388 9 -510 -196 -101 -170 -115 -187 -169 -215 -85 -44 -190 -19 -252 61
-54 71 -53 90 26 437 150 666 152 673 202 725 43 45 97 82 141 95 43 12 43 12
46 64 3 48 2 51 -20 50 -13 0 -39 -6 -59 -14z"/>
<path d="M2260 3537 c-22 -11 -26 -21 -30 -77 l-5 -65 -62 -3 c-51 -2 -65 -7
-78 -25 -37 -53 -8 -90 77 -97 l63 -5 5 -63 c5 -67 16 -82 61 -82 41 0 59 28
59 93 l0 57 58 0 c66 0 92 18 92 62 0 40 -29 58 -93 58 l-57 0 0 59 c0 52 -3
62 -26 80 -31 24 -31 25 -64 8z"/>
<path d="M3288 3490 c-25 -15 -33 -66 -14 -95 42 -65 142 -22 127 55 -8 43
-70 65 -113 40z"/>
<path d="M3487 3482 c-26 -29 -22 -77 9 -101 35 -27 59 -26 89 4 30 29 32 68
5 95 -26 26 -81 26 -103 2z"/>
<path d="M3492 3280 c-28 -26 -29 -80 -4 -103 29 -26 77 -22 101 9 27 35 26
59 -4 89 -29 30 -64 32 -93 5z"/>
</g>
</svg>
